<svg width="116" height="116" viewBox="0 0 116 116" fill="none" xmlns="http://www.w3.org/2000/svg">
<path fill-rule="evenodd" clip-rule="evenodd" d="M115.693 21.7302C115.693 25.1049 112.962 27.8383 109.59 27.8383C107.1 27.8383 104.958 26.3513 104.012 24.2084H54.9123V35.5863H50.5427V19.835H103.793C104.587 17.386 106.881 15.6221 109.59 15.6221C112.962 15.6221 115.693 18.3554 115.693 21.7302ZM89.075 37.7731C89.075 41.1479 86.344 43.8812 82.972 43.8812C80.372 43.8812 78.151 42.2558 77.277 39.9598H28.7094V53.4297H24.3398V35.5865H77.277C78.151 33.2905 80.372 31.665 82.972 31.665C86.344 31.665 89.075 34.3984 89.075 37.7731ZM57.1406 61.725C60.5052 61.725 63.2434 58.9843 63.2434 55.6169C63.2434 52.2421 60.5052 49.5088 57.1406 49.5088C54.5407 49.5088 52.3195 51.1342 51.4456 53.4302H0.117676V57.8035H24.3398V76.593H77.27C78.144 78.882 80.365 80.515 82.972 80.515C86.344 80.515 89.075 77.782 89.075 74.4141C89.075 71.0394 86.344 68.306 82.972 68.306C80.372 68.306 78.158 69.9314 77.277 72.2201H28.7094V57.8035H51.4456C52.3195 60.0923 54.5407 61.725 57.1406 61.725ZM115.693 94.269C115.693 97.644 112.962 100.377 109.59 100.377C107.099 100.377 104.958 98.89 104.012 96.748H50.2295V76.594H54.5991V92.374H103.793C104.587 89.925 106.881 88.161 109.59 88.161C112.962 88.161 115.693 90.895 115.693 94.269Z" fill="url(#paint0_radial_16_45)"/>
<defs>
<radialGradient id="paint0_radial_16_45" cx="0" cy="0" r="1" gradientUnits="userSpaceOnUse" gradientTransform="translate(4.5 57.9995) scale(111.5 60.3451)">
<stop stop-color="#E1C575"/>
<stop offset="0.485832" stop-color="#EBE08F"/>
<stop offset="0.71071" stop-color="#CEE5BE"/>
<stop offset="1" stop-color="#01587E"/>
</radialGradient>
</defs>
</svg>
