<svg width="447" height="164" viewBox="0 0 447 164" fill="none" xmlns="http://www.w3.org/2000/svg">
<path fill-rule="evenodd" clip-rule="evenodd" d="M183.609 55.0529C172.278 54.3459 160.888 61.6712 158.419 73.0564C155.622 82.7288 157.013 94.4493 164.092 101.979C177.492 116.214 205.37 110.456 206.943 89.0993H198.983C197.301 100.565 186.712 105.157 176.305 101.76C168.483 98.6331 164.857 89.8865 164.966 81.8979C165.279 73.9165 169.132 64.9439 177.397 62.5823C187.142 59.2148 197.687 65.1626 199.092 75.5711H207.052C205.741 63.2675 195.946 54.7395 183.609 55.0602V55.0529Z" fill="white"/>
<path fill-rule="evenodd" clip-rule="evenodd" d="M246.648 81.0888C245.424 73.297 237.938 69.5578 230.619 69.8494C222.426 69.5359 214.226 73.727 213.068 82.5102H220.372C220.809 74.8641 232.673 75.0609 237.596 78.0348C239.271 79.1718 240.094 81.1763 239.89 83.1662C239.059 85.3601 236.394 85.7974 234.326 85.8922C227.648 86.5774 219.01 85.4038 214.16 91.0236C209.528 97.3649 212.507 106.87 220.044 109.246C223.817 110.274 228.223 109.829 231.93 108.706C235.564 107.358 237.756 103.59 239.591 100.397C239.278 100.069 239.089 99.6245 239.089 99.1361C239.089 98.1302 239.904 97.3139 240.909 97.3139C241.251 97.3139 241.565 97.4086 241.841 97.5763C241.863 97.5836 241.892 97.5909 241.914 97.6054C241.965 97.6419 242.016 97.6856 242.067 97.7294C242.104 97.7585 242.133 97.7804 242.162 97.8095C242.198 97.8533 242.242 97.8897 242.271 97.9334C242.555 98.2542 242.73 98.6769 242.73 99.1361C242.73 99.2236 242.723 99.3038 242.708 99.3839C242.701 99.4131 242.701 99.4422 242.693 99.4714C242.657 99.7046 242.57 99.916 242.446 100.106C242.38 100.222 242.293 100.331 242.198 100.426C242.162 100.47 242.118 100.514 242.067 100.543C241.98 100.623 241.885 100.689 241.776 100.74C241.725 100.769 241.674 100.798 241.616 100.813C241.586 100.827 241.55 100.842 241.514 100.849C241.47 100.864 241.426 100.878 241.375 100.893C241.23 100.936 241.069 100.958 240.909 100.958C240.829 100.958 240.742 100.951 240.662 100.944C239.751 103.364 239.715 106.811 239.89 109.355H246.976C246.684 105.04 247.551 84.879 246.648 81.0888ZM233.896 101.279C230.546 103.262 225.871 104.297 222.222 102.7C217.801 100.754 217.882 94.9304 222.44 93.2102C227.837 91.0673 235.185 92.3574 239.78 88.4069C239.926 93.2321 238.368 98.7935 233.896 101.279Z" fill="white"/>
<path fill-rule="evenodd" clip-rule="evenodd" d="M421.453 81.0888C420.229 73.297 412.743 69.5578 405.424 69.8494C397.223 69.5359 389.03 73.727 387.872 82.5102H395.17C395.607 74.8641 407.47 75.0609 412.4 78.0348C414.075 79.1718 414.898 81.1763 414.694 83.1662C413.857 85.3601 411.199 85.7974 409.13 85.8922C402.452 86.5774 393.815 85.4038 388.958 91.0236C384.333 97.3649 387.312 106.87 394.849 109.246C398.622 110.274 403.028 109.829 406.734 108.706C410.376 107.358 412.524 103.604 414.359 100.412C414.352 100.404 414.352 100.397 414.345 100.39C414.046 100.069 413.864 99.6318 413.864 99.158C413.864 98.1521 414.68 97.3358 415.685 97.3358C416.69 97.3358 417.505 98.1521 417.505 99.158C417.505 100.164 416.777 100.893 415.852 100.973C415.801 100.987 415.721 100.987 415.605 100.98C415.597 100.98 415.583 100.98 415.576 100.973C415.539 100.973 415.495 100.966 415.452 100.958C414.534 103.386 414.52 106.797 414.694 109.355H421.78C421.489 105.04 422.356 84.879 421.453 81.0888ZM408.693 101.279C405.351 103.262 400.668 104.297 397.027 102.7C392.606 100.754 392.679 94.9304 397.245 93.2102C402.642 91.0673 409.982 92.3574 414.585 88.4069C414.731 93.2321 413.172 98.7935 408.693 101.279Z" fill="white"/>
<path fill-rule="evenodd" clip-rule="evenodd" d="M326.647 89.2378C326.451 79.9882 319.802 69.791 309.774 69.8785C304.785 69.9004 299.454 72.5244 297.277 77.1601C297.248 77.2111 297.124 77.4954 297.124 77.4954H297.116C297.349 77.8015 297.495 78.1878 297.495 78.6106C297.495 79.2083 297.204 79.7404 296.76 80.0684C296.461 80.3016 296.082 80.4328 295.674 80.4328C295.587 80.4328 295.5 80.4328 295.42 80.4182C295.405 80.4109 295.398 80.4109 295.383 80.4109C294.517 80.2724 293.854 79.5144 293.854 78.6106C293.854 78.3846 293.897 78.1587 293.978 77.9619C294.014 77.8452 294.072 77.7432 294.138 77.6411C294.16 77.5974 294.196 77.5537 294.225 77.5172C294.553 77.0726 295.077 76.7884 295.674 76.7884C295.725 76.7884 295.776 76.7884 295.827 76.7956L296.141 75.6367V70.8406H288.945V124.093H296.141V104.231C296.046 103.648 295.791 103.058 295.609 102.489C295.449 102.154 295.281 101.775 295.048 101.505C295.034 101.498 295.026 101.498 295.012 101.498C294.145 101.359 293.482 100.601 293.482 99.6973C293.482 99.4714 293.526 99.2454 293.606 99.0486C293.643 98.932 293.701 98.8299 293.766 98.7279C293.788 98.6842 293.817 98.6477 293.854 98.604C294.182 98.1594 294.706 97.8751 295.303 97.8751C296.308 97.8751 297.124 98.6915 297.124 99.6973C297.124 100.295 296.832 100.827 296.388 101.155C296.381 101.17 296.374 101.184 296.366 101.199C296.672 102.022 297.197 102.802 297.648 103.575C298.85 105.711 301.034 107.139 303.154 108.276C308.295 110.937 314.777 109.975 319.212 106.352C324.302 102.329 326.924 95.652 326.647 89.2378ZM318.272 95.9363C316.678 100.667 312.636 103.4 307.698 103.466C302.724 103.349 298.726 99.7994 297.014 95.2803C293.956 86.9418 299.046 76.0303 308.79 76.6207C318.105 77.284 321.105 88.3048 318.272 95.9363Z" fill="white"/>
<path fill-rule="evenodd" clip-rule="evenodd" d="M295.784 88.298C295.937 88.3126 296.097 88.3198 296.25 88.3271C297.007 81.9348 301.646 76.1838 308.798 76.6139C315.498 77.0877 318.928 82.9261 319.277 89.005C321.732 88.9613 324.179 88.903 326.64 88.8738C326.283 79.719 319.685 69.7842 309.781 69.8717C304.792 69.8935 299.461 72.5175 297.284 77.1533C297.255 77.2043 297.131 77.4886 297.131 77.4886H297.124C297.357 77.7947 297.502 78.181 297.502 78.6038C297.502 79.2014 297.211 79.7335 296.767 80.0615C296.468 80.2948 296.09 80.426 295.682 80.426C295.594 80.426 295.507 80.426 295.427 80.4114C295.412 80.4041 295.405 80.4041 295.39 80.4041C294.524 80.2656 293.861 79.5076 293.861 78.6038C293.861 78.3778 293.905 78.1518 293.985 77.955C294.021 77.8384 294.08 77.7364 294.145 77.6343C294.167 77.5906 294.203 77.5469 294.233 77.5104C294.56 77.0658 295.085 76.7815 295.682 76.7815C295.733 76.7815 295.784 76.7815 295.835 76.7888L296.148 75.6299V70.8338H288.953V87.7805C291.225 87.8096 293.504 88.1158 295.791 88.298H295.784Z" fill="white"/>
<path fill-rule="evenodd" clip-rule="evenodd" d="M384.901 69.8565V77.2766C382.614 77.0288 379.862 77.4151 377.589 77.714C376.526 78.1294 375.521 78.4793 374.538 79.128C373.649 79.8788 372.586 80.819 372.033 81.8613C371.312 83.2462 370.853 85.0393 370.503 86.5554C370.154 88.2974 370.314 107.584 370.292 109.909H362.98V70.7239H370.394C370.292 72.6992 370.329 75.5273 369.761 77.437C368.821 77.5099 368.086 78.2898 368.086 79.2519C368.086 80.2141 368.901 81.0741 369.906 81.0741C370.911 81.0741 371.727 80.2578 371.727 79.2519C371.727 78.6397 371.428 78.1003 370.97 77.7723C371.924 76.0448 373.111 73.3042 374.756 72.1453C377.706 70.2501 381.471 69.8493 384.901 69.8565Z" fill="white"/>
<path fill-rule="evenodd" clip-rule="evenodd" d="M140.693 45.7302C140.693 49.1049 137.962 51.8383 134.59 51.8383C132.1 51.8383 129.958 50.3513 129.012 48.2084H79.9123V59.5863H75.5427V43.835H128.793C129.587 41.386 131.881 39.6221 134.59 39.6221C137.962 39.6221 140.693 42.3554 140.693 45.7302Z" fill="white"/>
<path d="M276.026 62.9687C278.363 62.9687 280.257 61.0727 280.257 58.7339C280.257 56.395 278.363 54.499 276.026 54.499C273.689 54.499 271.795 56.395 271.795 58.7339C271.795 61.0727 273.689 62.9687 276.026 62.9687Z" fill="white"/>
<path fill-rule="evenodd" clip-rule="evenodd" d="M114.075 61.7731C114.075 65.1479 111.344 67.8812 107.972 67.8812C105.372 67.8812 103.151 66.2558 102.277 63.9598H53.7094V77.4297H49.3398V59.5865H102.277C103.151 57.2905 105.372 55.665 107.972 55.665C111.344 55.665 114.075 58.3984 114.075 61.7731Z" fill="white"/>
<path d="M88.2434 79.6169C88.2434 82.9843 85.5052 85.725 82.1406 85.725C79.5407 85.725 77.3195 84.0923 76.4456 81.8035H25.1177V77.4302H76.4456C77.3195 75.1342 79.5407 73.5088 82.1406 73.5088C85.5052 73.5088 88.2434 76.2421 88.2434 79.6169Z" fill="white"/>
<path fill-rule="evenodd" clip-rule="evenodd" d="M140.693 118.269C140.693 121.644 137.962 124.377 134.59 124.377C132.099 124.377 129.958 122.89 129.012 120.748H75.2295V100.594H79.5991V116.374H128.793C129.587 113.925 131.881 112.161 134.59 112.161C137.962 112.161 140.693 114.895 140.693 118.269Z" fill="white"/>
<path fill-rule="evenodd" clip-rule="evenodd" d="M114.075 98.4141C114.075 101.782 111.344 104.515 107.972 104.515C105.365 104.515 103.144 102.882 102.27 100.593H49.3398V81.8027H53.7094V96.2201H102.277C103.158 93.9314 105.372 92.306 107.972 92.306C111.344 92.306 114.075 95.0394 114.075 98.4141Z" fill="white"/>
<path d="M263.58 54.9658H256.275V109.414H263.58V54.9658Z" fill="white"/>
<path d="M279.675 70.1846H272.37V109.413H279.675V70.1846Z" fill="white"/>
<path fill-rule="evenodd" clip-rule="evenodd" d="M344.315 76.3511V98.553C344.315 102.066 346.223 102.664 347.366 102.737C347.476 102.744 355.093 102.737 355.093 102.737V109.362H347.359C347.017 109.37 346.653 109.377 346.245 109.362C336.741 109.02 337.003 98.553 337.003 98.553V76.3511H329.925V70.4252H337.003V59.3242H344.315V70.4252H355.093V76.3511H344.315Z" fill="white"/>
<path d="M369.906 81.0595C370.912 81.0595 371.727 80.2436 371.727 79.2373C371.727 78.2309 370.912 77.415 369.906 77.415C368.901 77.415 368.085 78.2309 368.085 79.2373C368.085 80.2436 368.901 81.0595 369.906 81.0595Z" fill="white"/>
<path fill-rule="evenodd" clip-rule="evenodd" d="M415.576 100.973C415.532 100.973 415.496 100.973 415.452 100.966C415.496 100.966 415.539 100.973 415.576 100.973Z" fill="white"/>
</svg>
